# xmcd
#
# Track frame offsets:
#	150
#	28586
#	53030
#	74314
#	98859
#	127135
#	154184
#	175938
#	198425
#	230553
#	255963
#	282741
#	303994
#	330041
#
# Disc length: 4695 seconds
#
# Revision: 0
# Processed by: cddbd v1.5.1PL2 Copyright (c) Steve Scherf et al.
# Submitted via: dBpowerAMP V4.0
#
DISCID=c012550e
DTITLE=Manmohan W - Dil Vich
DYEAR=2005
DGENRE=Alternative
TTITLE0=xdfh
TTITLE1=drg
TTITLE2=Dil Vich
TTITLE3=dfg
TTITLE4=drty
TTITLE5=drgh
TTITLE6=dr
TTITLE7=yhdrg
TTITLE8=drg
TTITLE9=dfgh
TTITLE10=dfgh
TTITLE11=drgh
TTITLE12=tujtgfy
TTITLE13=jr
EXTD=
EXTT0=
EXTT1=
EXTT2=
EXTT3=
EXTT4=
EXTT5=
EXTT6=
EXTT7=
EXTT8=
EXTT9=
EXTT10=
EXTT11=
EXTT12=
EXTT13=
PLAYORDER=
